<?xml version="1.0" standalone="no"?>
<!DOCTYPE svg PUBLIC "-//W3C//DTD SVG 20010904//EN"
 "http://www.w3.org/TR/2001/REC-SVG-20010904/DTD/svg10.dtd">
<svg version="1.0" xmlns="http://www.w3.org/2000/svg"
 width="512.000000pt" height="512.000000pt" viewBox="0 0 512.000000 512.000000"
 preserveAspectRatio="xMidYMid meet">
<metadata>
Created by potrace 1.11, written by Peter Selinger 2001-2013
</metadata>
<g transform="translate(0.000000,512.000000) scale(0.100000,-0.100000)"
fill="#000000" stroke="none">
<path d="M222 4780 c-92 -30 -168 -105 -202 -200 -19 -54 -19 -86 -17 -1715
l2 -1660 33 -65 c37 -74 92 -123 173 -156 l51 -22 1247 0 c685 -1 1256 -1
1269 -1 l22 -1 0 -386 0 -386 23 16 c12 9 28 19 35 22 13 6 435 285 457 301 6
5 36 25 67 45 l58 38 316 -210 c174 -116 317 -210 319 -210 2 0 3 171 3 381 0
209 2 383 5 386 3 2 182 6 399 6 l393 2 56 29 c74 37 120 83 155 154 l29 57 0
1675 0 1675 -22 47 c-31 67 -96 133 -162 165 l-56 28 -2300 1 c-2159 1 -2303
0 -2353 -16z m4574 -1901 l1 -1597 -358 0 -359 1 -1 36 c0 20 0 93 -1 162 l0
127 56 57 c128 129 228 331 253 508 8 56 8 241 0 294 -27 188 -129 387 -271
529 -122 122 -277 210 -446 255 -110 29 -338 32 -440 5 -36 -9 -70 -18 -77
-19 -7 -2 -16 -6 -19 -10 -4 -4 -14 -7 -23 -7 -9 0 -46 -16 -83 -34 -286 -145
-460 -371 -531 -689 -22 -97 -16 -306 11 -408 44 -163 121 -304 234 -425 l58
-62 -1 -160 -1 -160 -1237 0 -1238 1 0 1591 c0 875 1 1594 3 1597 2 4 1008 6
2236 5 l2233 -1 1 -1596z m-1191 58 c66 -18 139 -52 195 -90 45 -31 160 -144
160 -158 0 -4 6 -14 13 -21 23 -24 55 -93 77 -163 32 -104 34 -246 6 -350 -2
-5 -7 -23 -11 -40 -10 -38 -59 -129 -92 -173 -119 -158 -287 -247 -482 -257
-305 -16 -575 186 -654 488 -22 85 -16 254 12 337 56 162 173 302 312 372 95
48 124 58 179 65 25 3 47 7 49 9 10 9 188 -6 236 -19z m-355 -1563 c172 -28
286 -25 437 14 l71 18 0 -313 c0 -234 -3 -311 -11 -306 -7 4 -78 52 -159 106
l-147 100 -68 -44 c-37 -24 -72 -47 -78 -52 -5 -4 -46 -32 -90 -62 l-80 -54
-5 47 c-3 26 -4 167 -2 313 l3 266 52 -14 c29 -8 63 -16 77 -19z"/>
<path d="M802 3919 l0 -159 36 0 c51 -1 3410 -1 3449 -1 l31 1 -1 158 -2 157
-1757 2 -1756 1 0 -159z"/>
<path d="M803 3279 l2 -160 635 0 635 0 5 68 c3 37 4 109 2 160 l-3 92 -639 0
-638 0 1 -160z"/>
</g>
</svg>
