<?xml version="1.0" standalone="no"?>
<!DOCTYPE svg PUBLIC "-//W3C//DTD SVG 20010904//EN"
 "http://www.w3.org/TR/2001/REC-SVG-20010904/DTD/svg10.dtd">
<svg version="1.0" xmlns="http://www.w3.org/2000/svg"
 width="512.000000pt" height="512.000000pt" viewBox="0 0 512.000000 512.000000"
 preserveAspectRatio="xMidYMid meet">
<metadata>
Created by potrace 1.11, written by Peter Selinger 2001-2013
</metadata>
<g transform="translate(0.000000,512.000000) scale(0.100000,-0.100000)"
fill="#000000" stroke="none">
<path d="M224 4779 c-83 -24 -175 -116 -206 -207 -18 -52 -25 -3259 -8 -3342
24 -114 85 -190 190 -239 l55 -26 1273 -3 1272 -3 0 -384 0 -385 208 138 c114
76 258 171 320 211 l112 73 304 -201 c168 -111 312 -204 320 -207 14 -6 16 34
16 374 l0 381 393 3 392 3 55 26 c105 49 166 125 190 239 17 83 10 3290 -8
3342 -32 94 -123 183 -210 208 -48 13 -4623 12 -4668 -1z m4576 -1899 l0
-1600 -360 0 -360 0 0 168 0 168 46 44 c122 119 222 312 254 492 16 85 14 271
-4 353 -44 206 -134 365 -289 511 -184 173 -396 256 -652 256 -372 0 -713
-219 -867 -559 -104 -231 -110 -517 -13 -755 40 -100 102 -195 176 -273 l69
-72 0 -167 0 -166 -1240 0 -1240 0 0 1600 0 1600 2240 0 2240 0 0 -1600z
m-1219 76 c347 -74 567 -418 493 -773 -62 -301 -324 -513 -634 -513 -364 0
-650 286 -650 650 0 179 64 334 190 461 124 124 275 187 455 188 44 0 110 -6
146 -13z m-123 -1603 c-10 -2 -26 -2 -35 0 -10 3 -2 5 17 5 19 0 27 -2 18 -5z
m-313 -563 c-3 -5 -12 -10 -18 -10 -7 0 -6 4 3 10 19 12 23 12 15 0z"/>
<path d="M807 4073 c-4 -3 -7 -75 -7 -160 l0 -153 1760 0 1761 0 -3 158 -3
157 -1751 3 c-963 1 -1754 -1 -1757 -5z"/>
<path d="M804 3427 c-2 -7 -3 -78 -2 -157 l3 -145 638 -3 637 -2 0 160 0 160
-635 0 c-511 0 -637 -3 -641 -13z"/>
</g>
</svg>
